<svg width="504" height="338" viewBox="0 0 504 338" fill="none" xmlns="http://www.w3.org/2000/svg">
<g filter="url(#filter0_d_65_1126)">
<circle cx="255" cy="48" r="41" fill="#D3C1F8"/>
<circle cx="255" cy="48" r="40.5" stroke="#18191F"/>
</g>
<path d="M235.005 21.4435L235.005 21.4435C235.262 21.4585 235.514 21.5751 235.708 21.7937L239.773 26.3734C240.151 26.7994 240.113 27.4388 239.687 27.8166C239.261 28.1947 238.622 28.1564 238.244 27.7306L234.179 23.1509C233.801 22.7253 233.839 22.0855 234.265 21.7077C234.482 21.5146 234.747 21.4285 235.003 21.4434C235.004 21.4434 235.004 21.4434 235.005 21.4435ZM278.226 24.0183L278.252 24.0198C278.5 24.0415 278.742 24.1577 278.929 24.3685C279.307 24.7942 279.269 25.4337 278.843 25.8117L274.264 29.8765C273.838 30.2543 273.198 30.2161 272.821 29.7905C272.443 29.3648 272.481 28.7253 272.907 28.3473L277.486 24.2825C277.705 24.0888 277.969 24.003 278.226 24.0183ZM256.33 27.5303L256.331 27.5304C265.423 28.0721 273.75 35.6462 273.16 45.5493L273.66 45.579L273.16 45.5493C272.796 51.663 270.42 55.3591 267.917 58.554C267.535 59.0411 267.147 59.5193 266.762 59.9952C264.721 62.5118 262.737 64.9598 261.999 68.2757L245.864 67.3144C245.525 63.9338 243.845 61.2673 242.118 58.5261C241.792 58.008 241.464 57.4872 241.143 56.9584C239.036 53.489 237.116 49.5372 237.48 43.4237L236.981 43.3939L237.48 43.4237C238.07 33.5208 247.238 26.9887 256.33 27.5303ZM251.409 30.8843L251.13 30.8677L251.096 30.9168C250.987 30.9376 250.881 30.9671 250.778 31.0051C245.79 32.5601 241.902 36.6271 240.655 41.8235C240.392 42.9118 241.06 44.0075 242.147 44.2734L242.147 44.2735C243.235 44.5394 244.332 43.8758 244.602 42.7897L244.602 42.7897L244.603 42.7857C245.514 38.9878 248.378 35.9932 252.019 34.8623C252.957 34.575 253.556 33.6589 253.442 32.6845L252.945 32.7426L253.442 32.6845C253.328 31.7135 252.539 30.9616 251.565 30.894C251.517 30.8892 251.47 30.8864 251.424 30.8852L251.409 30.8843ZM279.753 45.7959L279.782 45.7976L285.895 46.1614C285.895 46.1614 285.895 46.1614 285.895 46.1614C286.463 46.1953 286.897 46.6833 286.863 47.2519C286.829 47.8205 286.341 48.2537 285.772 48.2198L279.659 47.8556C279.09 47.8217 278.657 47.3337 278.691 46.7651C278.724 46.2061 279.197 45.7779 279.753 45.7959ZM245.36 78.5195L245.421 77.4907L261.234 78.4323L261.172 79.4615C261.172 79.4616 261.172 79.4616 261.172 79.4617C261.085 80.9273 259.815 81.9476 258.463 81.8667L258.463 81.8667L247.765 81.2294C247.765 81.2294 247.765 81.2294 247.765 81.2294C246.412 81.1484 245.272 79.9849 245.36 78.5195ZM250.454 83.925L255.472 84.2239C255.171 85.3874 254.087 86.2074 252.84 86.1329L252.84 86.1329C251.593 86.0585 250.614 85.1154 250.454 83.925ZM256.058 14.7446C256.092 14.176 256.58 13.7428 257.149 13.7767C257.717 13.8106 258.15 14.2986 258.116 14.8672L257.752 20.9805C257.718 21.5491 257.23 21.9822 256.662 21.9484C256.093 21.9145 255.66 21.4264 255.694 20.8579L256.058 14.7446ZM223.673 43.4875C223.707 42.9189 224.195 42.4858 224.764 42.5196L230.877 42.8838C231.446 42.9177 231.879 43.4058 231.845 43.9743C231.811 44.5429 231.323 44.9761 230.755 44.9422L224.641 44.578C224.073 44.5442 223.64 44.0561 223.673 43.4875ZM261.475 74.3778L245.662 73.4358L245.785 71.3774L261.598 72.3194L261.475 74.3778Z" fill="#FFAEB0" stroke="#18191F"/>
<g filter="url(#filter1_d_65_1126)">
<circle cx="463" cy="293" r="40.5" fill="#D3C1F8" stroke="#18191F"/>
<g filter="url(#filter2_d_65_1126)">
<path d="M469.205 301.829L469.205 301.829C469.471 301.977 469.762 302.051 470.051 302.051C470.722 302.051 471.342 301.66 471.651 301.024L471.651 301.024C472.003 300.299 472.684 299.799 473.463 299.458C474.053 299.201 474.657 299.054 475.121 298.972C476.957 301.431 479.792 303.028 482.986 303.028C484.021 303.028 484.781 302.142 484.781 301.15C484.781 300.159 484.021 299.273 482.986 299.273C479.461 299.273 476.512 296.177 476.512 292.273C476.512 291.282 475.753 290.395 474.718 290.395C473.682 290.395 472.923 291.281 472.923 292.273C472.923 293.406 473.09 294.499 473.396 295.525C471.748 295.993 469.567 297.026 468.452 299.322L469.205 301.829ZM469.205 301.829L468.862 301.637V301.58M469.205 301.829L468.862 301.58M468.862 301.58C468.252 301.018 468.082 300.084 468.452 299.323L468.862 301.58ZM457.125 289.251L457.125 289.251C457.163 288.101 457.531 286.998 458.192 286.073L458.192 286.072C459.031 284.899 460.232 284.161 461.571 283.972L461.572 283.972C462.516 283.839 463.476 283.996 464.339 284.419L464.34 284.42C464.439 284.468 464.54 284.527 464.658 284.598L464.658 284.598C465.198 284.926 467.08 285.972 469.394 285.972C470.082 285.972 470.775 285.892 471.461 285.729L457.125 289.251ZM457.125 289.251C457.096 290.119 456.504 290.947 455.572 291.078C454.477 291.232 453.592 290.357 453.538 289.32L453.532 289.305L453.536 289.164C453.58 287.618 453.984 286.116 454.723 284.774C452.899 283.248 451.736 280.971 451.55 278.447L451.55 278.446M457.125 289.251L451.55 278.446M477.416 281.273L477.416 281.272C477.953 280.369 477.677 279.125 476.706 278.606C475.813 278.128 474.811 278.556 474.346 279.325L477.416 281.273ZM477.416 281.273C476.06 283.551 473.948 285.141 471.461 285.729L477.416 281.273ZM470.661 282.069L470.661 282.069C469.632 282.326 468.541 282.132 467.664 281.841C467.232 281.698 466.868 281.537 466.612 281.411C466.485 281.348 466.385 281.295 466.319 281.258C466.286 281.24 466.261 281.225 466.246 281.216C466.243 281.215 466.241 281.213 466.239 281.212C464.366 279.919 463.318 277.624 463.539 275.199C463.629 274.215 462.959 273.26 461.933 273.153C460.901 273.042 460.057 273.853 459.967 274.842L470.661 282.069ZM470.661 282.069C472.181 281.69 473.491 280.739 474.346 279.325L470.661 282.069ZM455.133 278.211L455.133 278.21C455.061 277.339 454.409 276.459 453.401 276.426L455.133 278.211ZM455.133 278.211C455.259 279.744 455.994 281.093 457.104 281.956C458.209 281.092 459.497 280.516 460.885 280.284M455.133 278.211L460.885 280.284M451.55 278.446C451.474 277.398 452.266 276.389 453.401 276.426L451.55 278.446ZM460.885 280.284C460.127 278.63 459.793 276.756 459.967 274.843L460.885 280.284ZM433.592 277.062L433.526 277.635L433.168 277.646C430.807 279.518 429.38 281.324 428.534 283.151C427.667 285.022 427.385 286.965 427.385 289.115C427.385 295.282 432.03 300.198 437.662 300.198C437.713 300.198 438.133 300.197 438.767 300.195C439.414 300.193 440.284 300.191 441.209 300.188C443.037 300.183 445.08 300.178 446.036 300.178H446.646L446.703 300.785C447.232 306.419 451.66 310.76 456.944 310.76C458.193 310.76 459.389 310.519 460.498 310.077L461.018 309.87L461.314 310.346L470.003 324.33H474.405V318.66V317.99H475.075H478.651C481.777 317.99 484.42 315.443 484.768 312.084H478.18C477.014 312.084 476.207 310.972 476.42 309.834C476.587 308.941 477.365 308.329 478.222 308.329H489.863C494.386 308.059 498.05 304.018 498.05 298.983C498.05 294.124 494.636 290.187 490.333 289.679C489.389 289.568 488.747 288.728 488.747 287.817C488.747 286.758 489.62 285.817 490.739 285.949L490.74 285.949C492.475 286.155 494.098 286.751 495.535 287.648C495.914 286.567 496.125 285.398 496.125 284.173C496.125 279.345 492.919 275.376 488.745 274.5L488.317 274.41L488.227 273.982C487.268 269.405 483.479 266.042 479.01 266.042C478.215 266.042 477.444 266.151 476.705 266.352C474.462 267.088 472.519 268.767 471.355 271.12C471.044 271.75 470.426 272.134 469.76 272.134C469.468 272.134 469.172 272.059 468.902 271.904C468.026 271.404 467.731 270.279 468.168 269.394L468.168 269.393C469.154 267.402 470.555 265.749 472.224 264.527C470.653 263.354 468.751 262.67 466.703 262.67C463.88 262.67 461.329 263.967 459.543 266.059L459.144 266.526L458.644 266.168C457.214 265.145 455.507 264.545 453.672 264.526C453.671 264.526 453.67 264.526 453.669 264.526C453.647 264.529 453.617 264.531 453.581 264.531C448.647 264.531 444.551 268.858 444.551 274.277C444.551 275.269 443.791 276.154 442.756 276.154C441.721 276.154 440.962 275.268 440.962 274.277C440.962 272.195 441.407 270.221 442.199 268.456C437.783 268.691 434.143 272.327 433.592 277.062ZM466.231 281.208C466.229 281.206 466.228 281.205 466.228 281.205C466.228 281.206 466.229 281.206 466.231 281.208ZM449.78 294.814C449.78 295.368 449.543 295.889 449.153 296.241L449.603 296.691H447.986C442.393 296.691 437.923 291.821 437.923 285.936V285.936C437.923 284.944 438.682 284.058 439.717 284.058C440.753 284.058 441.512 284.945 441.512 285.936C441.512 289.84 444.461 292.936 447.986 292.936C449.021 292.936 449.78 293.823 449.78 294.814Z" fill="#F7B501" stroke="#18191F" stroke-width="1.33936"/>
</g>
</g>
<g filter="url(#filter3_d_65_1126)">
<circle cx="41" cy="293" r="40.5" fill="#D3C1F8" stroke="#18191F"/>
<path d="M57.7488 315.589H58.4988V314.839V299.331H65.1279V314.839V315.589H65.8779H68.2723L61.8134 322.855L55.3545 315.589H57.7488Z" fill="#48A36A" stroke="#18191F" stroke-width="1.5"/>
<path d="M23.9594 268.244C29.0442 264.711 35.0769 262.798 41.2654 262.751L41.4899 262.751C48.9039 262.749 56.0674 265.426 61.6629 270.289L61.663 270.289C67.2585 275.151 70.9087 281.872 71.9409 289.212L72.6836 289.108L71.9409 289.212C72.8465 295.651 71.6839 302.187 68.6597 307.892V298.581C68.6597 297.843 68.3666 297.135 67.8449 296.613C67.3231 296.091 66.6152 295.798 65.8774 295.798H57.7484C57.0107 295.798 56.3027 296.091 55.781 296.613C55.2592 297.135 54.9661 297.843 54.9661 298.581V312.056H53.6839C52.9649 312.056 52.2738 312.335 51.7553 312.832L51.755 312.833C51.2364 313.332 50.9316 314.012 50.9031 314.729L50.9031 314.73C50.8751 315.449 51.1266 316.15 51.6041 316.687L55.3817 320.938C50.0833 323.618 44.1153 324.711 38.1985 324.072C31.9678 323.399 26.0912 320.839 21.356 316.733L21.3559 316.733C16.6203 312.628 13.253 307.173 11.704 301.1C10.155 295.027 10.4987 288.626 12.6889 282.753C14.8791 276.882 18.8114 271.819 23.9593 268.244L23.9594 268.244ZM32.4069 302.32L33.4404 303.353L44.9367 296.169L45.3406 295.916L45.2839 295.443L42.2355 270.04L40.7462 270.04L37.9341 293.477L32.4069 302.32Z" fill="#48A36A" stroke="#18191F" stroke-width="1.5"/>
</g>
<line x1="211.318" y1="83.5043" x2="83.478" y2="250.108" stroke="#18191F" stroke-width="2" stroke-linecap="round"/>
<line x1="1" y1="-1" x2="211" y2="-1" transform="matrix(-0.608761 -0.793353 -0.793353 0.608761 422.058 250.191)" stroke="#18191F" stroke-width="2" stroke-linecap="round"/>
<line x1="98" y1="292" x2="406" y2="292" stroke="#18191F" stroke-width="2" stroke-linecap="round"/>
<path d="M104.122 198.912L102.319 197.452L103.477 196.022L96.2028 190.131L95.0448 191.561L93.2418 190.101L96.8667 185.625C98.0499 184.164 99.3207 183.357 100.679 183.205C102.036 183.034 103.445 183.54 104.906 184.723L106.957 186.384C108.419 187.568 109.212 188.845 109.337 190.216C109.46 191.568 108.93 192.974 107.747 194.435L104.122 198.912ZM105.076 193.92L105.907 192.894C106.578 192.065 106.851 191.283 106.727 190.547C106.602 189.811 106.146 189.124 105.358 188.486L103.182 186.724C102.384 186.078 101.618 185.775 100.882 185.814C100.137 185.845 99.4283 186.275 98.7571 187.104L97.9264 188.13L105.076 193.92ZM112.756 188.249L101.876 179.439L107.54 172.444L109.405 173.955L105.403 178.897L107.999 180.999L111.649 176.492L113.514 178.002L109.864 182.51L112.553 184.687L116.631 179.651L118.496 181.161L112.756 188.249ZM119.474 179.954L117.671 178.494L118.829 177.064L111.555 171.173L110.397 172.603L108.594 171.143L112.219 166.667C113.402 165.206 114.673 164.399 116.031 164.247C117.388 164.076 118.797 164.582 120.258 165.765L122.309 167.426C123.77 168.609 124.564 169.886 124.689 171.257C124.812 172.61 124.282 174.016 123.099 175.477L119.474 179.954ZM120.428 174.962L121.259 173.936C121.93 173.107 122.203 172.324 122.079 171.589C121.954 170.853 121.498 170.166 120.71 169.528L118.534 167.766C117.736 167.12 116.97 166.817 116.234 166.856C115.489 166.887 114.78 167.317 114.109 168.146L113.278 169.172L120.428 174.962ZM128.108 169.291L117.228 160.48L118.89 158.429L129.77 167.239L128.108 169.291ZM134.993 161.234C133.902 162.582 132.664 163.347 131.281 163.53C129.887 163.705 128.49 163.226 127.091 162.093L124.48 159.979C123.081 158.846 122.328 157.584 122.219 156.192C122.1 154.792 122.587 153.419 123.677 152.072C124.76 150.735 125.963 150.002 127.286 149.872C128.607 149.724 129.905 150.166 131.179 151.198L131.272 151.273L129.636 153.294L129.481 153.168C128.838 152.648 128.163 152.401 127.455 152.428C126.755 152.445 126.107 152.821 125.511 153.557C124.924 154.282 124.685 155.032 124.795 155.808C124.905 156.583 125.344 157.281 126.11 157.902L128.784 160.067C129.54 160.679 130.314 160.963 131.106 160.918C131.887 160.864 132.571 160.475 133.159 159.749C133.754 159.014 133.988 158.302 133.858 157.614C133.727 156.907 133.346 156.298 132.714 155.786L132.434 155.559L134.07 153.539L134.288 153.715C135.562 154.747 136.269 155.929 136.409 157.26C136.547 158.573 136.075 159.898 134.993 161.234ZM138.825 156.057L130.26 144.387L133.155 140.812L146.351 146.763L144.64 148.877L141.768 147.529L138.621 151.415L140.536 153.944L138.825 156.057ZM137.115 149.397L139.481 146.475L133.111 143.504L132.885 143.784L137.115 149.397ZM148.634 143.944L139.619 136.644L137.051 139.815L135.186 138.305L141.983 129.911L143.848 131.422L141.28 134.593L150.295 141.893L148.634 143.944ZM153.994 137.325L143.114 128.514L144.775 126.463L155.655 135.273L153.994 137.325ZM160.954 129.175C159.846 130.543 158.592 131.329 157.192 131.533C155.781 131.729 154.376 131.26 152.977 130.127L150.366 128.013C148.967 126.88 148.222 125.607 148.13 124.195C148.028 122.774 148.531 121.38 149.639 120.012C150.746 118.644 152.005 117.863 153.416 117.667C154.817 117.463 156.217 117.927 157.616 119.06L160.227 121.174C161.626 122.307 162.376 123.584 162.478 125.005C162.569 126.417 162.061 127.807 160.954 129.175ZM159.12 127.69C159.741 126.923 160 126.147 159.899 125.361C159.797 124.576 159.374 123.881 158.627 123.276L155.892 121.061C155.146 120.457 154.378 120.187 153.588 120.251C152.799 120.315 152.094 120.731 151.473 121.497C150.86 122.254 150.6 123.03 150.694 123.826C150.795 124.612 151.219 125.307 151.965 125.911L154.701 128.126C155.447 128.73 156.214 129 157.004 128.936C157.802 128.862 158.507 128.446 159.12 127.69ZM165.818 122.723L154.938 113.912L158.098 110.011L169.328 115.528L169.555 115.249L160.074 107.571L161.71 105.55L172.59 114.361L169.431 118.262L158.2 112.745L157.973 113.025L167.455 120.702L165.818 122.723Z" fill="#18191F"/>
<path d="M321.541 97.3534L332.573 88.7341L334.198 90.8145L323.166 99.4338L321.541 97.3534ZM324.787 101.509L335.82 92.8897L338.91 96.8455L331.008 106.547L331.23 106.831L340.843 99.3198L342.444 101.369L331.412 109.988L328.321 106.032L336.223 96.3304L336.002 96.0467L326.388 103.558L324.787 101.509ZM335.031 114.62L344.172 107.479L341.66 104.263L343.551 102.786L350.2 111.296L348.309 112.774L345.797 109.559L336.656 116.701L335.031 114.62ZM340.275 121.332L351.307 112.713L356.848 119.805L354.957 121.283L351.041 116.271L348.409 118.327L351.98 122.898L350.089 124.375L346.518 119.805L343.792 121.935L347.781 127.041L345.89 128.519L340.275 121.332ZM347.093 130.059L358.125 121.44L359.751 123.52L350.61 130.662L354.55 135.705L352.659 137.183L347.093 130.059ZM353.767 138.601L364.799 129.982L366.424 132.062L357.283 139.204L361.224 144.247L359.332 145.724L353.767 138.601ZM360.44 147.143L371.473 138.523L373.098 140.604L362.066 149.223L360.44 147.143ZM366.446 155.285C365.855 154.528 365.486 153.709 365.338 152.826C365.208 151.946 365.326 151.067 365.69 150.191C366.072 149.316 366.737 148.51 367.682 147.771L370.33 145.702C371.748 144.594 373.148 144.144 374.528 144.351C375.919 144.55 377.148 145.333 378.215 146.699C379.274 148.054 379.728 149.383 379.578 150.685C379.446 151.989 378.766 153.121 377.537 154.082L377.474 154.131L375.873 152.082L375.999 151.984C376.388 151.68 376.674 151.321 376.858 150.906C377.05 150.503 377.108 150.068 377.032 149.603C376.967 149.129 376.741 148.646 376.356 148.152C375.781 147.416 375.104 147.015 374.323 146.948C373.543 146.88 372.764 147.15 371.987 147.758L369.276 149.876C368.509 150.475 368.053 151.169 367.909 151.959C367.775 152.741 368.004 153.51 368.595 154.266C369.186 155.023 369.816 155.418 370.486 155.453C371.157 155.488 371.796 155.267 372.406 154.791L372.563 154.668L370.519 152.052L372.284 150.673L375.929 155.338L370.287 159.746L368.785 157.823L369.841 156.998L369.619 156.714C369.383 156.78 369.099 156.807 368.768 156.795C368.446 156.793 368.089 156.683 367.698 156.464C367.307 156.245 366.89 155.852 366.446 155.285ZM371.84 161.733L382.872 153.114L388.413 160.206L386.522 161.684L382.606 156.672L379.974 158.728L383.545 163.299L381.654 164.776L378.083 160.206L375.356 162.336L379.346 167.442L377.455 168.92L371.84 161.733ZM378.658 170.46L389.69 161.841L392.781 165.796L384.878 175.498L385.1 175.782L394.714 168.271L396.314 170.32L385.282 178.939L382.192 174.983L390.094 165.281L389.872 164.998L380.258 172.509L378.658 170.46ZM389.961 185.383C388.894 184.017 388.427 182.639 388.56 181.249C388.703 179.852 389.483 178.599 390.902 177.491L393.55 175.422C394.968 174.314 396.367 173.863 397.748 174.071C399.139 174.27 400.368 175.053 401.435 176.419C402.494 177.774 402.938 179.111 402.766 180.429C402.613 181.75 401.891 182.915 400.599 183.925L400.504 183.998L398.903 181.95L399.061 181.826C399.712 181.317 400.105 180.715 400.238 180.019C400.379 179.333 400.158 178.618 399.575 177.872C399 177.136 398.323 176.735 397.543 176.667C396.763 176.6 395.984 176.87 395.206 177.478L392.496 179.595C391.729 180.195 391.278 180.885 391.144 181.667C391.021 182.44 391.246 183.194 391.821 183.93C392.404 184.676 393.045 185.063 393.744 185.092C394.462 185.123 395.142 184.888 395.783 184.388L396.067 184.166L397.667 186.215L397.447 186.387C396.154 187.397 394.844 187.82 393.515 187.657C392.205 187.496 391.02 186.738 389.961 185.383ZM394.831 191.161L405.863 182.541L411.404 189.633L409.513 191.111L405.597 186.099L402.965 188.156L406.536 192.726L404.645 194.204L401.074 189.633L398.347 191.763L402.337 196.87L400.446 198.347L394.831 191.161Z" fill="#18191F"/>
<path d="M185.18 320.28C184.1 320.28 183.147 320.087 182.32 319.7C181.493 319.313 180.847 318.76 180.38 318.04C179.913 317.32 179.68 316.453 179.68 315.44V314.88H182.28V315.44C182.28 316.28 182.54 316.913 183.06 317.34C183.58 317.753 184.287 317.96 185.18 317.96C186.087 317.96 186.76 317.78 187.2 317.42C187.653 317.06 187.88 316.6 187.88 316.04C187.88 315.653 187.767 315.34 187.54 315.1C187.327 314.86 187.007 314.667 186.58 314.52C186.167 314.36 185.66 314.213 185.06 314.08L184.6 313.98C183.64 313.767 182.813 313.5 182.12 313.18C181.44 312.847 180.913 312.413 180.54 311.88C180.18 311.347 180 310.653 180 309.8C180 308.947 180.2 308.22 180.6 307.62C181.013 307.007 181.587 306.54 182.32 306.22C183.067 305.887 183.94 305.72 184.94 305.72C185.94 305.72 186.827 305.893 187.6 306.24C188.387 306.573 189 307.08 189.44 307.76C189.893 308.427 190.12 309.267 190.12 310.28V310.88H187.52V310.28C187.52 309.747 187.413 309.32 187.2 309C187 308.667 186.707 308.427 186.32 308.28C185.933 308.12 185.473 308.04 184.94 308.04C184.14 308.04 183.547 308.193 183.16 308.5C182.787 308.793 182.6 309.2 182.6 309.72C182.6 310.067 182.687 310.36 182.86 310.6C183.047 310.84 183.32 311.04 183.68 311.2C184.04 311.36 184.5 311.5 185.06 311.62L185.52 311.72C186.52 311.933 187.387 312.207 188.12 312.54C188.867 312.873 189.447 313.313 189.86 313.86C190.273 314.407 190.48 315.107 190.48 315.96C190.48 316.813 190.26 317.567 189.82 318.22C189.393 318.86 188.78 319.367 187.98 319.74C187.193 320.1 186.26 320.28 185.18 320.28ZM192.449 320V306H197.349L199.769 318.2H200.129L202.549 306H207.449V320H204.889V307.94H204.529L202.129 320H197.769L195.369 307.94H195.009V320H192.449ZM209.126 320L212.806 306H217.406L221.086 320H218.366L217.606 316.92H212.606L211.846 320H209.126ZM213.226 314.48H216.986L215.286 307.66H214.926L213.226 314.48ZM222.761 320V306H228.841C229.721 306 230.488 306.153 231.141 306.46C231.795 306.767 232.301 307.2 232.661 307.76C233.021 308.32 233.201 308.98 233.201 309.74V309.98C233.201 310.82 233.001 311.5 232.601 312.02C232.201 312.54 231.708 312.92 231.121 313.16V313.52C231.655 313.547 232.068 313.733 232.361 314.08C232.655 314.413 232.801 314.86 232.801 315.42V320H230.161V315.8C230.161 315.48 230.075 315.22 229.901 315.02C229.741 314.82 229.468 314.72 229.081 314.72H225.401V320H222.761ZM225.401 312.32H228.561C229.188 312.32 229.675 312.153 230.021 311.82C230.381 311.473 230.561 311.02 230.561 310.46V310.26C230.561 309.7 230.388 309.253 230.041 308.92C229.695 308.573 229.201 308.4 228.561 308.4H225.401V312.32ZM238.404 320V308.4H234.324V306H245.124V308.4H241.044V320H238.404ZM252.397 320L250.557 306H253.177L254.537 318.16H254.897L256.657 306H261.217L262.977 318.16H263.337L264.697 306H267.317L265.477 320H260.917L259.117 307.56H258.757L256.957 320H252.397ZM274.569 320.28C272.809 320.28 271.409 319.8 270.369 318.84C269.329 317.867 268.809 316.48 268.809 314.68V311.32C268.809 309.52 269.329 308.14 270.369 307.18C271.409 306.207 272.809 305.72 274.569 305.72C276.329 305.72 277.729 306.207 278.769 307.18C279.809 308.14 280.329 309.52 280.329 311.32V314.68C280.329 316.48 279.809 317.867 278.769 318.84C277.729 319.8 276.329 320.28 274.569 320.28ZM274.569 317.92C275.555 317.92 276.322 317.633 276.869 317.06C277.415 316.487 277.689 315.72 277.689 314.76V311.24C277.689 310.28 277.415 309.513 276.869 308.94C276.322 308.367 275.555 308.08 274.569 308.08C273.595 308.08 272.829 308.367 272.269 308.94C271.722 309.513 271.449 310.28 271.449 311.24V314.76C271.449 315.72 271.722 316.487 272.269 317.06C272.829 317.633 273.595 317.92 274.569 317.92ZM282.644 320V306H288.724C289.604 306 290.371 306.153 291.024 306.46C291.678 306.767 292.184 307.2 292.544 307.76C292.904 308.32 293.084 308.98 293.084 309.74V309.98C293.084 310.82 292.884 311.5 292.484 312.02C292.084 312.54 291.591 312.92 291.004 313.16V313.52C291.538 313.547 291.951 313.733 292.244 314.08C292.538 314.413 292.684 314.86 292.684 315.42V320H290.044V315.8C290.044 315.48 289.958 315.22 289.784 315.02C289.624 314.82 289.351 314.72 288.964 314.72H285.284V320H282.644ZM285.284 312.32H288.444C289.071 312.32 289.558 312.153 289.904 311.82C290.264 311.473 290.444 311.02 290.444 310.46V310.26C290.444 309.7 290.271 309.253 289.924 308.92C289.578 308.573 289.084 308.4 288.444 308.4H285.284V312.32ZM295.281 320V306H297.921V311.56H298.281L302.821 306H306.201L300.361 312.9L306.401 320H302.921L298.281 314.32H297.921V320H295.281Z" fill="#18191F"/>
<defs>
<filter id="filter0_d_65_1126" x="214" y="7.00003" width="82" height="86" filterUnits="userSpaceOnUse" color-interpolation-filters="sRGB">
<feFlood flood-opacity="0" result="BackgroundImageFix"/>
<feColorMatrix in="SourceAlpha" type="matrix" values="0 0 0 0 0 0 0 0 0 0 0 0 0 0 0 0 0 0 127 0" result="hardAlpha"/>
<feOffset dy="4"/>
<feComposite in2="hardAlpha" operator="out"/>
<feColorMatrix type="matrix" values="0 0 0 0 0.0941176 0 0 0 0 0.0980392 0 0 0 0 0.121569 0 0 0 1 0"/>
<feBlend mode="normal" in2="BackgroundImageFix" result="effect1_dropShadow_65_1126"/>
<feBlend mode="normal" in="SourceGraphic" in2="effect1_dropShadow_65_1126" result="shape"/>
</filter>
<filter id="filter1_d_65_1126" x="422" y="252" width="82" height="86" filterUnits="userSpaceOnUse" color-interpolation-filters="sRGB">
<feFlood flood-opacity="0" result="BackgroundImageFix"/>
<feColorMatrix in="SourceAlpha" type="matrix" values="0 0 0 0 0 0 0 0 0 0 0 0 0 0 0 0 0 0 127 0" result="hardAlpha"/>
<feOffset dy="4"/>
<feComposite in2="hardAlpha" operator="out"/>
<feColorMatrix type="matrix" values="0 0 0 0 0.0941176 0 0 0 0 0.0980392 0 0 0 0 0.121569 0 0 0 1 0"/>
<feBlend mode="normal" in2="BackgroundImageFix" result="effect1_dropShadow_65_1126"/>
<feBlend mode="normal" in="SourceGraphic" in2="effect1_dropShadow_65_1126" result="shape"/>
</filter>
<filter id="filter2_d_65_1126" x="426.18" y="262" width="73.0754" height="64.0715" filterUnits="userSpaceOnUse" color-interpolation-filters="sRGB">
<feFlood flood-opacity="0" result="BackgroundImageFix"/>
<feColorMatrix in="SourceAlpha" type="matrix" values="0 0 0 0 0 0 0 0 0 0 0 0 0 0 0 0 0 0 127 0" result="hardAlpha"/>
<feOffset dy="0.535743"/>
<feGaussianBlur stdDeviation="0.267871"/>
<feComposite in2="hardAlpha" operator="out"/>
<feColorMatrix type="matrix" values="0 0 0 0 0 0 0 0 0 0 0 0 0 0 0 0 0 0 0.25 0"/>
<feBlend mode="normal" in2="BackgroundImageFix" result="effect1_dropShadow_65_1126"/>
<feBlend mode="normal" in="SourceGraphic" in2="effect1_dropShadow_65_1126" result="shape"/>
</filter>
<filter id="filter3_d_65_1126" x="0" y="252" width="82" height="86" filterUnits="userSpaceOnUse" color-interpolation-filters="sRGB">
<feFlood flood-opacity="0" result="BackgroundImageFix"/>
<feColorMatrix in="SourceAlpha" type="matrix" values="0 0 0 0 0 0 0 0 0 0 0 0 0 0 0 0 0 0 127 0" result="hardAlpha"/>
<feOffset dy="4"/>
<feComposite in2="hardAlpha" operator="out"/>
<feColorMatrix type="matrix" values="0 0 0 0 0.0941176 0 0 0 0 0.0980392 0 0 0 0 0.121569 0 0 0 1 0"/>
<feBlend mode="normal" in2="BackgroundImageFix" result="effect1_dropShadow_65_1126"/>
<feBlend mode="normal" in="SourceGraphic" in2="effect1_dropShadow_65_1126" result="shape"/>
</filter>
</defs>
</svg>
